<svg version="1.1" id="Layer_1" xmlns="http://www.w3.org/2000/svg" xmlns:xlink="http://www.w3.org/1999/xlink" x="0px" y="0px"
	 width="100%" viewBox="0 0 512 512" enable-background="new 0 0 512 512" xml:space="preserve">
<path fill="#000000" opacity="1.000000" stroke="none" 
	d="
M228.000000,1.000003 
	C322.961975,1.000000 417.923950,1.000000 512.942993,1.000000 
	C512.942993,171.560333 512.942993,342.120667 512.942993,513.000000 
	C419.310944,513.000000 325.621490,513.000000 231.134201,512.786255 
	C231.235245,511.748810 232.134140,510.925110 233.414429,510.049042 
	C234.709503,509.700287 235.683044,509.521179 236.527847,509.089874 
	C247.625397,503.424194 258.887848,498.049164 269.747009,491.956177 
	C287.331207,482.089844 303.114929,469.662384 317.610138,455.720245 
	C325.206299,448.413940 332.101807,440.354156 339.049255,432.403564 
	C354.322601,414.924957 366.948303,395.615601 376.939453,374.708954 
	C384.049011,359.832062 390.856293,344.749390 396.668610,329.332611 
	C401.615295,316.211975 405.413574,302.600830 408.863922,288.989746 
	C412.284668,275.495331 414.939331,261.783325 417.360687,248.066284 
	C419.342255,236.840698 420.486481,225.467285 422.394043,214.093384 
	C442.319458,209.001587 458.409760,198.588181 470.748688,182.676926 
	C486.635345,162.190811 492.427551,138.772751 488.804169,113.315842 
	C486.760315,98.956581 481.285004,85.579575 472.357422,73.943810 
	C461.531342,59.833656 448.251373,48.633991 431.136810,43.120361 
	C422.368896,40.295681 413.075226,39.102970 403.566040,37.098564 
	C399.015289,37.347466 394.855347,37.330376 390.833466,38.066956 
	C383.313873,39.444115 375.621002,40.533218 368.452698,43.037338 
	C351.947083,48.803276 338.309448,58.846603 327.509521,72.845787 
	C317.678314,67.555801 308.028412,62.642265 298.688141,57.197594 
	C280.723816,46.725803 263.924011,34.592754 248.303162,20.838097 
	C243.649139,16.740088 238.804291,12.858816 233.920532,8.568855 
	C231.862808,5.839653 229.931396,3.419830 228.000000,1.000003 
z"/>
<path fill="#000000" opacity="1.000000" stroke="none" 
	d="
M220.000000,513.000000 
	C147.033401,513.000000 74.066795,513.000000 1.050099,513.000000 
	C1.050099,342.444824 1.050099,171.889633 1.050099,1.000000 
	C74.687759,1.000000 148.376038,1.000000 222.863083,1.228929 
	C219.478210,5.425692 215.276932,9.375122 211.114075,13.364661 
	C196.192093,27.665409 179.621994,39.826897 162.371140,51.128567 
	C140.678238,65.340385 117.439270,76.382820 93.033806,85.000771 
	C71.005394,92.779350 48.320568,97.967659 25.438602,101.303787 
	C24.925432,105.511383 24.015533,109.408646 24.054775,113.296326 
	C24.190222,126.714996 24.437975,140.140350 25.052465,153.544388 
	C25.821455,170.318558 26.763485,187.092285 28.072340,203.831696 
	C29.014797,215.885132 29.847486,228.047775 32.202068,239.868317 
	C36.530178,261.596436 41.520897,283.216339 47.004967,304.684784 
	C55.030113,336.100769 67.772736,365.739716 84.344368,393.517273 
	C99.051384,418.169342 116.197205,441.153992 138.376678,459.805267 
	C148.738129,468.518463 159.235199,477.151123 170.295502,484.932373 
	C184.510941,494.933380 199.881912,503.043976 216.027237,509.620667 
	C217.556580,510.243652 218.685287,511.850128 220.000000,513.000000 
z"/>
<path fill="#5F97E7" opacity="1.000000" stroke="none" 
	d="
M220.458069,513.000000 
	C218.685287,511.850128 217.556580,510.243652 216.027237,509.620667 
	C199.881912,503.043976 184.510941,494.933380 170.295502,484.932373 
	C159.235199,477.151123 148.738129,468.518463 138.376678,459.805267 
	C116.197205,441.153992 99.051384,418.169342 84.344368,393.517273 
	C67.772736,365.739716 55.030113,336.100769 47.004967,304.684784 
	C41.520897,283.216339 36.530178,261.596436 32.202068,239.868317 
	C29.847486,228.047775 29.014797,215.885132 28.072340,203.831696 
	C26.763485,187.092285 25.821455,170.318558 25.052465,153.544388 
	C24.437975,140.140350 24.190222,126.714996 24.054775,113.296326 
	C24.015533,109.408646 24.925432,105.511383 25.438602,101.303787 
	C48.320568,97.967659 71.005394,92.779350 93.033806,85.000771 
	C117.439270,76.382820 140.678238,65.340385 162.371140,51.128567 
	C179.621994,39.826897 196.192093,27.665409 211.114075,13.364661 
	C215.276932,9.375122 219.478210,5.425692 223.330933,1.228929 
	C224.388885,1.000000 225.777786,1.000000 227.583328,1.000003 
	C229.931396,3.419830 231.862808,5.839653 233.731354,8.851504 
	C232.164062,10.748625 230.716095,12.126307 229.146454,13.347652 
	C212.368744,26.402699 196.378799,40.674877 178.616348,52.218197 
	C138.441208,78.326897 94.151794,94.291908 46.635769,101.015991 
	C43.405655,101.473076 41.913074,102.919395 41.993767,106.216759 
	C42.713894,135.644562 41.992302,165.192627 44.487717,194.467255 
	C46.823921,221.874146 51.456192,249.218765 57.030891,276.187134 
	C67.273781,325.738464 86.027069,371.998505 115.165123,413.697998 
	C128.761597,433.155975 144.517410,450.733276 162.710938,465.972778 
	C182.976288,482.947693 205.295258,496.765533 229.417969,507.639648 
	C230.726929,508.229706 231.832718,509.270477 233.033066,510.101440 
	C232.134140,510.925110 231.235245,511.748810 230.668167,512.786255 
	C227.638718,513.000000 224.277420,513.000000 220.458069,513.000000 
z"/>
<path fill="#69A7FF" opacity="1.000000" stroke="none" 
	d="
M233.414459,510.049011 
	C231.832718,509.270477 230.726929,508.229706 229.417969,507.639648 
	C205.295258,496.765533 182.976288,482.947693 162.710938,465.972778 
	C144.517410,450.733276 128.761597,433.155975 115.165123,413.697998 
	C86.027069,371.998505 67.273781,325.738464 57.030891,276.187134 
	C51.456192,249.218765 46.823921,221.874146 44.487717,194.467255 
	C41.992302,165.192627 42.713894,135.644562 41.993767,106.216759 
	C41.913074,102.919395 43.405655,101.473076 46.635769,101.015991 
	C94.151794,94.291908 138.441208,78.326897 178.616348,52.218197 
	C196.378799,40.674877 212.368744,26.402699 229.146454,13.347652 
	C230.716095,12.126307 232.164062,10.748625 233.857697,9.160883 
	C238.804291,12.858816 243.649139,16.740088 248.303162,20.838097 
	C263.924011,34.592754 280.723816,46.725803 298.688141,57.197594 
	C308.028412,62.642265 317.678314,67.555801 327.486572,73.186356 
	C323.204895,82.525406 318.624939,91.387344 313.691101,100.145195 
	C284.443085,86.804909 258.122803,69.523659 233.687988,49.293755 
	C224.794510,41.930725 223.907852,41.978336 216.468887,51.020012 
	C215.319351,51.661903 214.444382,52.152939 213.674332,52.774059 
	C168.043396,89.580101 116.740486,114.591141 59.331142,126.798119 
	C55.534832,127.605331 54.932919,129.648026 55.074036,132.776245 
	C55.695850,146.560013 56.338573,160.343048 56.895836,174.129486 
	C58.087555,203.612076 61.934692,232.766296 68.040298,261.607208 
	C80.101273,318.579346 100.819519,371.607056 139.500854,416.290894 
	C161.474228,441.674072 187.549164,461.714020 218.214233,476.273865 
	C221.832413,478.099121 224.707596,480.522430 229.106873,478.471680 
	C254.406403,466.678040 277.292969,451.330383 297.303741,431.920776 
	C323.723297,406.295013 343.318573,375.923889 358.059387,342.319061 
	C375.671112,302.169342 385.329010,259.939789 391.372864,216.646133 
	C394.214081,216.681671 396.605499,216.718552 399.437927,216.823181 
	C407.253265,215.980438 414.627563,215.069916 422.001892,214.159393 
	C420.486481,225.467285 419.342255,236.840698 417.360687,248.066284 
	C414.939331,261.783325 412.284668,275.495331 408.863922,288.989746 
	C405.413574,302.600830 401.615295,316.211975 396.668610,329.332611 
	C390.856293,344.749390 384.049011,359.832062 376.939453,374.708954 
	C366.948303,395.615601 354.322601,414.924957 339.049255,432.403564 
	C332.101807,440.354156 325.206299,448.413940 317.610138,455.720245 
	C303.114929,469.662384 287.331207,482.089844 269.747009,491.956177 
	C258.887848,498.049164 247.625397,503.424194 236.527847,509.089874 
	C235.683044,509.521179 234.709503,509.700287 233.414459,510.049011 
z"/>
<path fill="#45BF64" opacity="1.000000" stroke="none" 
	d="
M422.394043,214.093369 
	C414.627563,215.069916 407.253265,215.980438 399.269287,216.524734 
	C397.316864,215.573029 396.025818,214.776688 394.623779,214.433197 
	C366.116913,207.448944 345.181000,190.876419 333.199615,164.113815 
	C319.189941,132.820786 322.449738,102.477982 342.206299,74.679848 
	C356.277435,54.881329 376.001251,42.962856 400.241394,39.005627 
	C401.565094,38.789536 402.762817,37.801441 404.019165,37.172699 
	C413.075226,39.102970 422.368896,40.295681 431.136810,43.120361 
	C448.251373,48.633991 461.531342,59.833656 472.357422,73.943810 
	C481.285004,85.579575 486.760315,98.956581 488.804169,113.315842 
	C492.427551,138.772751 486.635345,162.190811 470.748688,182.676926 
	C458.409760,198.588181 442.319458,209.001587 422.394043,214.093369 
M383.111481,146.833771 
	C381.264130,149.144272 379.824921,147.998505 378.243347,146.396683 
	C372.741974,140.825027 367.183716,135.309250 361.620453,129.799118 
	C357.051727,125.274040 352.772614,124.683807 349.531921,128.072067 
	C346.381470,131.366013 346.971130,135.443588 351.320526,139.816162 
	C358.722443,147.257507 366.152588,154.670822 373.584320,162.082474 
	C379.408844,167.891220 382.479645,167.928696 388.242340,162.172455 
	C408.162537,142.274673 428.063507,122.357635 447.964630,102.440765 
	C448.904449,101.500175 449.930420,100.592239 450.649261,99.494301 
	C452.843658,96.142815 452.740479,92.820084 449.754333,90.012207 
	C446.950775,87.375969 443.761017,87.296936 440.663483,89.556602 
	C439.329132,90.529984 438.187531,91.779022 437.010559,92.955055 
	C419.214996,110.736519 401.428101,128.526672 383.111481,146.833771 
z"/>
<path fill="#3EAC5B" opacity="1.000000" stroke="none" 
	d="
M403.566040,37.098564 
	C402.762817,37.801441 401.565094,38.789536 400.241394,39.005627 
	C376.001251,42.962856 356.277435,54.881329 342.206299,74.679848 
	C322.449738,102.477982 319.189941,132.820786 333.199615,164.113815 
	C345.181000,190.876419 366.116913,207.448944 394.623779,214.433197 
	C396.025818,214.776688 397.316864,215.573029 398.828278,216.456970 
	C396.605499,216.718552 394.214081,216.681671 391.040131,216.482605 
	C384.513916,215.231094 378.770233,214.141800 372.710144,212.872711 
	C342.275055,201.862839 322.291870,181.360397 313.282074,150.504395 
	C309.087860,136.140427 309.424286,121.602325 312.406189,106.743988 
	C313.084167,104.385506 313.564575,102.317390 314.044983,100.249283 
	C318.624939,91.387344 323.204895,82.525406 327.807739,73.322891 
	C338.309448,58.846603 351.947083,48.803276 368.452698,43.037338 
	C375.621002,40.533218 383.313873,39.444115 390.833466,38.066956 
	C394.855347,37.330376 399.015289,37.347466 403.566040,37.098564 
z"/>
<path fill="#5687CF" opacity="1.000000" stroke="none" 
	d="
M312.208618,107.034348 
	C309.424286,121.602325 309.087860,136.140427 313.282074,150.504395 
	C322.291870,181.360397 342.275055,201.862839 372.705933,213.320282 
	C370.092712,231.989609 367.954468,250.201859 364.094086,268.041473 
	C352.642273,320.962708 332.579926,370.009094 297.631500,412.243683 
	C280.785217,432.602112 261.097961,449.498383 238.851349,463.542419 
	C231.988510,467.874817 224.925064,471.889404 217.953461,476.049500 
	C187.549164,461.714020 161.474228,441.674072 139.500854,416.290894 
	C100.819519,371.607056 80.101273,318.579346 68.040298,261.607208 
	C61.934692,232.766296 58.087555,203.612076 56.895836,174.129486 
	C56.338573,160.343048 55.695850,146.560013 55.074036,132.776245 
	C54.932919,129.648026 55.534832,127.605331 59.331142,126.798119 
	C116.740486,114.591141 168.043396,89.580101 213.674332,52.774059 
	C214.444382,52.152939 215.319351,51.661903 216.800171,51.168045 
	C218.701157,52.038334 219.963043,52.827690 221.191071,53.666649 
	C237.056671,64.505760 252.438248,76.159256 268.927643,85.946655 
	C282.681305,94.110252 297.732239,100.088333 312.208618,107.034348 
M201.890518,168.991257 
	C198.728394,169.023254 195.552490,168.877167 192.406677,169.120285 
	C182.529221,169.883636 177.171631,180.075684 182.384583,187.976440 
	C185.633102,192.899902 190.733109,193.560455 195.644882,194.594711 
	C188.882568,202.806229 181.787842,210.768951 175.420395,219.276031 
	C156.470779,244.593231 140.086899,271.292603 135.584747,303.383301 
	C132.817307,323.109131 135.726868,341.997772 148.455078,358.094696 
	C167.173615,381.767426 193.019440,390.313019 222.699631,391.735168 
	C223.136124,391.707947 223.572601,391.680725 224.655807,391.821472 
	C225.093384,391.762268 225.530945,391.703033 226.820023,391.757477 
	C242.378326,391.026031 257.527283,388.503082 271.866455,382.022858 
	C302.000702,368.404388 317.518463,343.541504 316.109070,310.649017 
	C315.414093,294.428589 310.383606,279.315430 303.594177,264.760162 
	C291.308319,238.421417 273.883942,215.584503 255.499298,193.495499 
	C256.158020,193.440125 256.816071,193.373901 257.475616,193.331024 
	C265.551514,192.806000 270.592865,188.231812 270.619568,181.400925 
	C270.646881,174.414780 265.218445,169.547012 257.061615,169.253357 
	C254.089188,169.146332 251.116058,169.058685 248.376328,168.331345 
	C251.525452,164.071152 254.486023,159.654861 257.859161,155.580139 
	C267.870911,143.486053 267.054626,129.717697 264.988495,114.630562 
	C262.329163,116.249855 260.488251,117.281258 258.740723,118.452034 
	C253.918610,121.682678 249.322372,125.303345 244.282928,128.141418 
	C239.525406,130.820709 237.343887,129.780716 234.782043,124.912048 
	C231.802765,119.250053 228.827301,113.586060 225.588577,107.425278 
	C222.350296,113.633102 219.444183,119.218597 216.524521,124.797012 
	C213.871307,129.866348 211.729385,130.664932 206.562439,128.053726 
	C203.614761,126.564079 200.894379,124.624702 197.754929,122.305923 
	C194.219971,119.725388 190.685028,117.144844 186.079712,113.782944 
	C184.097809,129.937683 183.109253,144.179626 193.866394,156.506607 
	C197.203339,160.330536 199.834091,164.770767 201.890518,168.991257 
z"/>
<path fill="#4D7ABB" opacity="1.000000" stroke="none" 
	d="
M218.214218,476.273865 
	C224.925064,471.889404 231.988510,467.874817 238.851349,463.542419 
	C261.097961,449.498383 280.785217,432.602112 297.631500,412.243683 
	C332.579926,370.009094 352.642273,320.962708 364.094086,268.041473 
	C367.954468,250.201859 370.092712,231.989609 373.022278,213.500076 
	C378.770233,214.141800 384.513916,215.231094 390.590393,216.483948 
	C385.329010,259.939789 375.671112,302.169342 358.059387,342.319061 
	C343.318573,375.923889 323.723297,406.295013 297.303741,431.920776 
	C277.292969,451.330383 254.406403,466.678040 229.106873,478.471680 
	C224.707596,480.522430 221.832413,478.099121 218.214218,476.273865 
z"/>
<path fill="#4D7BBB" opacity="1.000000" stroke="none" 
	d="
M312.406189,106.743988 
	C297.732239,100.088333 282.681305,94.110252 268.927643,85.946655 
	C252.438248,76.159256 237.056671,64.505760 221.191071,53.666649 
	C219.963043,52.827690 218.701157,52.038334 217.123718,51.077896 
	C223.907852,41.978336 224.794510,41.930725 233.687988,49.293755 
	C258.122803,69.523659 284.443085,86.804909 313.691071,100.145187 
	C313.564575,102.317390 313.084167,104.385506 312.406189,106.743988 
z"/>
<path fill="#CFDCE3" opacity="1.000000" stroke="none" 
	d="
M383.375305,146.574280 
	C401.428101,128.526672 419.214996,110.736519 437.010559,92.955055 
	C438.187531,91.779022 439.329132,90.529984 440.663483,89.556602 
	C443.761017,87.296936 446.950775,87.375969 449.754333,90.012207 
	C452.740479,92.820084 452.843658,96.142815 450.649261,99.494301 
	C449.930420,100.592239 448.904449,101.500175 447.964630,102.440765 
	C428.063507,122.357635 408.162537,142.274673 388.242340,162.172455 
	C382.479645,167.928696 379.408844,167.891220 373.584320,162.082474 
	C366.152588,154.670822 358.722443,147.257507 351.320526,139.816162 
	C346.971130,135.443588 346.381470,131.366013 349.531921,128.072067 
	C352.772614,124.683807 357.051727,125.274040 361.620453,129.799118 
	C367.183716,135.309250 372.741974,140.825027 378.243347,146.396683 
	C379.824921,147.998505 381.264130,149.144272 383.375305,146.574280 
z"/>
<path fill="#FFD23B" opacity="1.000000" stroke="none" 
	d="
M254.807556,193.902115 
	C273.883942,215.584503 291.308319,238.421417 303.594177,264.760162 
	C310.383606,279.315430 315.414093,294.428589 316.109070,310.649017 
	C317.518463,343.541504 302.000702,368.404388 271.866455,382.022858 
	C257.527283,388.503082 242.378326,391.026031 226.214935,391.580750 
	C225.076279,391.487183 224.542679,391.570343 224.009094,391.653503 
	C223.572601,391.680725 223.136124,391.707947 222.176178,391.369324 
	C216.031021,389.654388 210.326248,388.579559 204.802505,386.906921 
	C184.813004,380.853882 167.668457,370.663574 156.642990,352.203491 
	C144.246338,331.447540 144.703583,309.423096 151.183563,287.123657 
	C158.625458,261.514008 172.295898,239.147690 188.393661,218.164551 
	C194.846207,209.753784 201.526749,201.517944 208.452957,193.156647 
	C209.504120,193.045700 210.205856,192.980606 211.381195,192.946213 
	C222.580978,192.998276 233.307953,192.950836 244.032837,193.079575 
	C247.627182,193.122726 251.216141,193.615082 254.807556,193.902115 
M199.987640,277.178711 
	C201.459091,290.169586 210.593781,298.999359 223.643631,300.044952 
	C230.888718,300.625488 236.065491,304.502991 236.903748,309.977051 
	C237.785568,315.735504 234.932190,320.938202 229.832504,322.870300 
	C223.805359,325.153778 218.824005,323.060028 214.831146,316.565002 
	C211.640808,311.375427 208.626434,310.032471 204.856842,312.121185 
	C200.726242,314.409943 199.359482,319.005432 202.574539,323.757599 
	C205.381989,327.907257 208.921585,332.055817 213.106140,334.631531 
	C216.808350,336.910339 218.228729,339.003784 218.144012,343.167572 
	C218.030014,348.771088 221.017944,351.982941 225.491211,351.994293 
	C229.982895,352.005676 233.044907,348.804474 232.868652,343.221130 
	C232.732819,338.918274 234.412003,336.747131 238.105255,334.745056 
	C247.554871,329.622559 253.192566,318.196136 251.467712,308.914673 
	C248.834503,294.745239 240.039688,287.008789 225.393967,285.978668 
	C217.895248,285.451202 212.942245,279.539337 214.195938,272.435516 
	C215.056015,267.562042 217.855698,264.208618 222.795731,263.173157 
	C228.731094,261.928986 232.811661,263.970795 236.201599,269.492645 
	C239.492172,274.852692 242.516846,276.204651 246.606537,274.143372 
	C250.217545,272.323425 251.684982,267.818634 248.903107,263.276154 
	C246.381912,259.159302 243.124924,254.855362 239.103729,252.465942 
	C234.676559,249.835358 232.515686,247.403809 232.824203,242.139740 
	C233.100677,237.422485 229.710724,234.076157 225.686447,234.138702 
	C221.031082,234.211044 218.900177,237.155594 218.251083,241.404221 
	C218.026154,242.876450 218.433685,244.518250 217.941528,245.858261 
	C217.327469,247.530212 216.448288,249.631424 215.051132,250.404984 
	C204.812393,256.073761 198.947708,264.119720 199.987640,277.178711 
z"/>
<path fill="#FED13C" opacity="1.000000" stroke="none" 
	d="
M198.071655,122.887817 
	C200.894379,124.624702 203.614761,126.564079 206.562439,128.053726 
	C211.729385,130.664932 213.871307,129.866348 216.524521,124.797012 
	C219.444183,119.218597 222.350296,113.633102 225.588577,107.425278 
	C228.827301,113.586060 231.802765,119.250053 234.782043,124.912048 
	C237.343887,129.780716 239.525406,130.820709 244.282928,128.141418 
	C249.322372,125.303345 253.918610,121.682678 258.740723,118.452034 
	C260.488251,117.281258 262.329163,116.249855 264.988495,114.630562 
	C267.054626,129.717697 267.870911,143.486053 257.859161,155.580139 
	C254.486023,159.654861 251.525452,164.071152 247.781815,168.663788 
	C236.745621,169.085999 226.303925,169.175751 215.636673,169.199814 
	C215.411102,169.134125 214.956528,169.015121 214.821655,168.698364 
	C211.992172,164.621353 209.532623,160.662720 206.558319,157.138489 
	C198.059891,147.068741 194.946243,135.780609 198.071655,122.887817 
z"/>
<path fill="#E5BD37" opacity="1.000000" stroke="none" 
	d="
M208.103516,193.202484 
	C201.526749,201.517944 194.846207,209.753784 188.393661,218.164551 
	C172.295898,239.147690 158.625458,261.514008 151.183563,287.123657 
	C144.703583,309.423096 144.246338,331.447540 156.642990,352.203491 
	C167.668457,370.663574 184.813004,380.853882 204.802505,386.906921 
	C210.326248,388.579559 216.031021,389.654388 221.855682,391.290771 
	C193.019440,390.313019 167.173615,381.767426 148.455078,358.094696 
	C135.726868,341.997772 132.817307,323.109131 135.584747,303.383301 
	C140.086899,271.292603 156.470779,244.593231 175.420395,219.276031 
	C181.787842,210.768951 188.882568,202.806229 196.152039,194.093475 
	C200.473969,193.462326 204.288742,193.332413 208.103516,193.202484 
z"/>
<path fill="#FDA833" opacity="1.000000" stroke="none" 
	d="
M215.862244,169.265503 
	C226.303925,169.175751 236.745621,169.085999 247.665283,168.979218 
	C251.116058,169.058685 254.089188,169.146332 257.061615,169.253357 
	C265.218445,169.547012 270.646881,174.414780 270.619568,181.400925 
	C270.592865,188.231812 265.551514,192.806000 257.475616,193.331024 
	C256.816071,193.373901 256.158020,193.440125 255.153427,193.698807 
	C251.216141,193.615082 247.627182,193.122726 244.032837,193.079575 
	C233.307953,192.950836 222.580978,192.998276 211.427002,192.594818 
	C211.586792,191.073547 211.888901,189.560608 212.809509,188.857437 
	C217.818741,185.031387 217.373444,179.879837 216.624191,174.591965 
	C216.372574,172.816132 216.116348,171.040970 215.862244,169.265503 
z"/>
<path fill="#E4972F" opacity="1.000000" stroke="none" 
	d="
M215.636673,169.199814 
	C216.116348,171.040970 216.372574,172.816132 216.624191,174.591965 
	C217.373444,179.879837 217.818741,185.031387 212.809509,188.857437 
	C211.888901,189.560608 211.586792,191.073547 210.953384,192.564117 
	C210.205856,192.980606 209.504120,193.045700 208.452942,193.156647 
	C204.288742,193.332413 200.473969,193.462326 196.304123,193.799652 
	C190.733109,193.560455 185.633102,192.899902 182.384583,187.976440 
	C177.171631,180.075684 182.529221,169.883636 192.406677,169.120285 
	C195.552490,168.877167 198.728394,169.023254 202.813339,168.981522 
	C207.476288,168.986237 211.216400,169.000671 214.956528,169.015121 
	C214.956528,169.015121 215.411102,169.134125 215.636673,169.199814 
z"/>
<path fill="#E5BD37" opacity="1.000000" stroke="none" 
	d="
M214.821655,168.698364 
	C211.216400,169.000671 207.476288,168.986237 203.262146,168.950317 
	C199.834091,164.770767 197.203339,160.330536 193.866394,156.506607 
	C183.109253,144.179626 184.097809,129.937683 186.079712,113.782944 
	C190.685028,117.144844 194.219971,119.725388 197.913300,122.596870 
	C194.946243,135.780609 198.059891,147.068741 206.558319,157.138489 
	C209.532623,160.662720 211.992172,164.621353 214.821655,168.698364 
z"/>
<path fill="#E5BD37" opacity="1.000000" stroke="none" 
	d="
M224.332458,391.737488 
	C224.542679,391.570343 225.076279,391.487183 225.789185,391.523926 
	C225.530945,391.703033 225.093384,391.762268 224.332458,391.737488 
z"/>
<path fill="#FEA932" opacity="1.000000" stroke="none" 
	d="
M199.979401,276.726349 
	C198.947708,264.119720 204.812393,256.073761 215.051132,250.404984 
	C216.448288,249.631424 217.327469,247.530212 217.941528,245.858261 
	C218.433685,244.518250 218.026154,242.876450 218.251083,241.404221 
	C218.900177,237.155594 221.031082,234.211044 225.686447,234.138702 
	C229.710724,234.076157 233.100677,237.422485 232.824203,242.139740 
	C232.515686,247.403809 234.676559,249.835358 239.103729,252.465942 
	C243.124924,254.855362 246.381912,259.159302 248.903107,263.276154 
	C251.684982,267.818634 250.217545,272.323425 246.606537,274.143372 
	C242.516846,276.204651 239.492172,274.852692 236.201599,269.492645 
	C232.811661,263.970795 228.731094,261.928986 222.795731,263.173157 
	C217.855698,264.208618 215.056015,267.562042 214.195938,272.435516 
	C212.942245,279.539337 217.895248,285.451202 225.393967,285.978668 
	C240.039688,287.008789 248.834503,294.745239 251.467712,308.914673 
	C253.192566,318.196136 247.554871,329.622559 238.105255,334.745056 
	C234.412003,336.747131 232.732819,338.918274 232.868652,343.221130 
	C233.044907,348.804474 229.982895,352.005676 225.491211,351.994293 
	C221.017944,351.982941 218.030014,348.771088 218.144012,343.167572 
	C218.228729,339.003784 216.808350,336.910339 213.106140,334.631531 
	C208.921585,332.055817 205.381989,327.907257 202.574539,323.757599 
	C199.359482,319.005432 200.726242,314.409943 204.856842,312.121185 
	C208.626434,310.032471 211.640808,311.375427 214.831146,316.565002 
	C218.824005,323.060028 223.805359,325.153778 229.832504,322.870300 
	C234.932190,320.938202 237.785568,315.735504 236.903748,309.977051 
	C236.065491,304.502991 230.888718,300.625488 223.643631,300.044952 
	C210.593781,298.999359 201.459091,290.169586 199.979401,276.726349 
z"/>
</svg>